<!--version="1.0" encoding="utf-8"--><!-- Generator: Adobe Illustrator 24.3.0, SVG Export Plug-In . SVG Version: 6.00 Build 0)  --><svg version="1.1" id="Capa_2" xmlns="http://www.w3.org/2000/svg" x="0" y="0" viewBox="0 0 511 512" style="" xml:space="preserve"><style type="text/css">.st0 { display: none; stroke: rgb(0, 0, 0); stroke-width: 14; stroke-miterlimit: 10; }.st1 { stroke: rgb(0, 0, 0); stroke-width: 14; stroke-miterlimit: 10; }.st2 { fill: none; stroke: rgb(0, 0, 0); stroke-width: 14; stroke-miterlimit: 10; }.st3 { fill: none; stroke: rgb(0, 0, 0); stroke-width: 6; stroke-miterlimit: 10; }.st4 { fill: none; stroke: rgb(0, 0, 0); stroke-width: 6; stroke-miterlimit: 10; stroke-dasharray: 15.4958 15.4958; }.st5 { fill: none; stroke: rgb(0, 0, 0); stroke-width: 6; stroke-miterlimit: 10; stroke-dasharray: 14.6968 14.6968; }.st6 { fill: none; stroke: rgb(0, 0, 0); stroke-width: 10; stroke-miterlimit: 10; }.st7 { fill: none; stroke: rgb(0, 0, 0); stroke-width: 6; stroke-miterlimit: 10; stroke-dasharray: 15; }</style><path class="st2" d="M253.5 19.4c-27.8 10.2-199.1 72.9-221.2 81V408c34.7 13.1 223.3 84.2 226.6 85.4 6.1-2.7 219-97.5 219-97.5s3.5-1.5 6.9-3.1V101.2L257.3 18s-1.3.5-3.8 1.4z"/><line class="st2" x1="243.2" y1="487.9" x2="243.2" y2="487.9"/><line class="st3" x1="29.8" y1="409.6" x2="36.7" y2="406.7"/><line class="st4" x1="51" y1="400.6" x2="243.3" y2="318.3"/><polyline class="st3" points="250.4 315.2 257.3 312.3 257.3 304.8"/><line class="st5" x1="257.3" y1="290.1" x2="257.3" y2="32.9"/><line class="st3" x1="257.3" y1="25.5" x2="257.3" y2="18"/><path class="st6" d="M95.6 275.1h-.1V182.9c14.3-5.2 98.4-35.8 105.7-38.5v92.3c-1.2.4-2.1.8-2.1.8s-90.9 33-103.5 37.6z"/><line class="st7" x1="255.5" y1="311.6" x2="328" y2="336.3"/><path class="st6" d="m330.3 155.4.6.2 82.8 24s.4.1.7.2v185.7c-10.2-3.7-75.2-26.9-86.5-31v-1.8l1.2-173v-4.5c.5 0 .9.1 1.2.2z"/><line class="st7" x1="408.3" y1="365.8" x2="479.9" y2="389.1"/></svg>