<?xml version="1.0" encoding="utf-8"?>
<!-- Generator: Adobe Illustrator 24.3.0, SVG Export Plug-In . SVG Version: 6.00 Build 0)  -->
<svg version="1.1" id="_x31_" xmlns="http://www.w3.org/2000/svg" xmlns:xlink="http://www.w3.org/1999/xlink" x="0px" y="0px"
	 viewBox="0 0 128 128" style="enable-background:new 0 0 128 128;" xml:space="preserve">
<style type="text/css">
	.st0{fill:#E1DEE6;}
</style>
<g>
	<ellipse class="st0" cx="23.2" cy="47.4" rx="7.8" ry="7.8"/>
	<path class="st0" d="M37.4,97.5h-9.5c0,0-0.5,0-0.9,0c-4.3-0.4-8-3.5-9.1-7.8l-6.5-24.2c-0.4-1.4-1.8-2.1-3-1.8
		c-1.4,0.4-2.1,1.8-1.8,3L13,90.9c1.7,6.3,7,10.9,13.5,11.4c0.6,0.1,1.3,0.1,1.3,0.1h9.5c1.4,0,2.4-1.1,2.5-2.5
		C39.8,98.5,38.8,97.5,37.4,97.5z"/>
	<path class="st0" d="M48.6,83.9h-13c-0.3-4.9-1.1-9.8-2.3-14.7c-0.1-0.4-0.4-1.4-0.4-1.5c-1.7-6.3-7.7-10.3-14-9.7
		c0,0-0.8,0.1-1,0.1c-2.3,0.6-3.7,3-3.1,5.4l6.7,24.9c0.7,2.8,3.1,4.9,6.1,5.1h0.6h15.5v17.8c0,2.7,2.1,4.9,4.9,4.9
		c2.7,0,4.9-2.1,4.9-4.9V88.8c0-1.3-0.5-2.5-1.5-3.4C51.1,84.4,49.8,83.9,48.6,83.9z"/>
</g>
<g>
	<ellipse class="st0" cx="104.4" cy="47.5" rx="7.8" ry="7.8"/>
	<path class="st0" d="M90.2,97.5h9.5c0,0,0.5,0,0.9,0c4.3-0.4,8-3.5,9.1-7.8l6.5-24.2c0.4-1.4,1.8-2.1,3-1.8c1.4,0.4,2.1,1.8,1.8,3
		l-6.4,24.2c-1.7,6.3-7,10.9-13.5,11.4c-0.6,0.1-1.3,0.1-1.3,0.1h-9.5c-1.4,0-2.4-1.1-2.5-2.5C87.8,98.5,88.9,97.5,90.2,97.5z"/>
	<path class="st0" d="M79,83.9h13c0.3-4.9,1.1-9.8,2.3-14.7c0.1-0.4,0.4-1.4,0.4-1.5c1.7-6.3,7.7-10.3,14-9.7c0,0,0.8,0.1,1,0.1
		c2.3,0.6,3.7,3,3.1,5.4L106,88.4c-0.7,2.8-3.1,4.9-6.1,5.1h-0.6H83.9v17.8c0,2.7-2.1,4.9-4.9,4.9s-4.9-2.1-4.9-4.9V88.8
		c0-1.3,0.5-2.5,1.5-3.4C76.5,84.4,77.8,83.9,79,83.9z"/>
</g>
<rect x="38.8" y="70.8" class="st0" width="50.6" height="6"/>
<circle class="st0" cx="64.1" cy="43.2" r="7.2"/>
<path class="st0" d="M52.5,67.9v-4.3h-0.1c0-0.5,0.4-0.9,0.9-0.9s0.9,0.4,0.9,0.9v4.3h19.9v-4.3H74c0-0.5,0.4-0.9,0.9-0.9
	s0.9,0.4,0.9,0.9v4.3H82v-6.1c0-5-4-9-9-9H55c-5,0-9,4-9,9v6.1H52.5z"/>
</svg>
