<?xml version="1.0" encoding="utf-8"?>
<!-- Generator: Adobe Illustrator 24.3.0, SVG Export Plug-In . SVG Version: 6.00 Build 0)  -->
<svg version="1.1" id="Capa_1" xmlns="http://www.w3.org/2000/svg" xmlns:xlink="http://www.w3.org/1999/xlink" x="0px" y="0px"
	 viewBox="0 0 512 512" style="enable-background:new 0 0 512 512;" xml:space="preserve">
<style type="text/css">
	.st0{fill:#E1DEE6;}
</style>
<g transform="translate(0.000000,64.000000) scale(0.100000,-0.100000)">
	<path class="st0" d="M1667.9,102.8c-278.4-117.8-471.1-353.3-471.1-556.7c0-21.4,546-42.8,1209.8-42.8
		c1316.9,0,1552.5-74.9,1841.5-642.4c96.4-182,160.6-599.6,160.6-1017.1c0-738.8,74.9-835.1,428.3-481.8
		c182,182,214.1,353.3,214.1,1263.4c0,995.7-10.7,1070.7-278.4,1316.9c-257,235.5-364,257-1520.3,289.1
		C2363.9,242,1903.5,209.9,1667.9,102.8z"/>
	<path class="st0" d="M661.5-925c-96.4-64.2-117.8-128.5-53.5-192.7c781.6-674.5,1338.3-1092.1,1466.8-1092.1
		c85.7,0,417.6,224.8,738.8,492.5c835.1,706.6,813.7,685.2,631.7,792.3C3231.1-785.8,875.6-785.8,661.5-925z"/>
	<path class="st0" d="M126.2-2402.5c0-995.7,10.7-1070.7,278.4-1316.9c246.3-224.8,385.4-257,1349-289.1
		c2055.7-74.9,2227,42.8,2227,1584.6c0,588.9-32.1,1070.7-74.9,1070.7c-53.5,0-417.6-289.1-835.1-642.4s-856.5-642.4-985-642.4
		c-139.2,0-567.4,278.4-1006.4,642.4c-417.6,353.3-803,642.4-856.5,642.4S126.2-1824.4,126.2-2402.5z"/>
</g>
</svg>
